# xmcd
#
# Track frame offsets: 
#        150
#        13288
#        27036
#        43476
#        65900
#        80334
#        97543
#        113601
#        125047
#        143797
#        166641
#        187293
#
# Disc length: 2707 seconds
#
# Revision: 0
# Processed by: cddbd v1.5.1PL0 Copyright (c) Steve Scherf et al.
# Submitted via: ExactAudioCopy v0.95a5
#
DISCID=a10a910c
DTITLE=Jeff Maylin and Bad Passion - The Kat and The Blues
DYEAR=1997
DGENRE=Blues
TTITLE0=Rocke
TTITLE1=Killing Floor
TTITLE2=Talk About It
TTITLE3=Backdoor Man
TTITLE4=Boom Boom
TTITLE5=Little Wing
TTITLE6=Kat Song
TTITLE7=Baby Don't Go
TTITLE8=Hey Joe
TTITLE9=Raining In Detroit
TTITLE10=Cold Cold Night
TTITLE11=Nobody's Business
EXTD=
EXTT0=
EXTT1=
EXTT2=
EXTT3=
EXTT4=
EXTT5=
EXTT6=
EXTT7=
EXTT8=
EXTT9=
EXTT10=
EXTT11=
PLAYORDER=
